<svg width="257" height="194" viewBox="0 0 257 194" fill="none" xmlns="http://www.w3.org/2000/svg">
<path fill-rule="evenodd" clip-rule="evenodd" d="M128.5 0.5C199.192 0.5 256.5 57.8075 256.5 128.5C256.5 152.228 250.043 174.449 238.791 193.5H18.209C6.95683 174.449 0.5 152.228 0.5 128.5C0.5 57.8075 57.8075 0.5 128.5 0.5ZM206.922 55.2725C200.136 53.9937 192.974 57.2735 184.441 63.7344C175.894 70.2064 165.836 79.9801 153.244 91.916L153.039 92.1094L153.1 92.3848C154.912 100.728 154.436 105.636 153.567 114.492C151.363 118.552 149.432 121.18 147.312 123.316C145.53 125.113 143.604 126.571 141.238 128.251L145.171 119.411L145.258 119.217L141.47 109.963L140.99 104.342L140.817 104.207L140.091 103.659C136.494 101.019 133.301 99.8164 127.094 98.1855L126.986 98.1572L126.877 98.1768C122.895 98.9094 119.224 100.532 116.558 101.963C115.222 102.679 114.134 103.351 113.378 103.844C113 104.09 112.704 104.292 112.503 104.434C112.402 104.504 112.325 104.56 112.272 104.598C112.246 104.617 112.227 104.632 112.213 104.642C112.206 104.647 112.2 104.651 112.196 104.653C112.195 104.655 112.192 104.656 112.192 104.656L112.19 104.658L111.989 104.808V109.98L108.205 119.227L112.458 127.918C107.031 123.499 104.08 120.256 99.8574 114.406C97.8454 109.033 97.8986 103.797 99.9053 91.9053L99.9502 91.6367L99.749 91.4531C88.4405 81.155 79.2598 72.1694 70.958 65.7471C62.6517 59.3212 55.1321 55.3839 47.1123 55.2646L46.6318 55.2568L46.6055 55.7363C46.3002 61.1311 46.6581 65.4229 48.1055 69.8115C49.4633 73.9287 51.7708 78.1033 55.3379 83.3359C52.9577 82.9006 50.9603 82.7611 48.9473 82.9531C46.6056 83.1765 44.2728 83.8434 41.3223 84.9648L40.8203 85.1562L41.0469 85.6436C44.5848 93.2546 47.0866 97.736 52.415 105.731L47.7119 107.571L48.1055 108.097C51.3333 112.411 54.0207 115.577 57.1006 118.156C59.9406 120.535 63.0979 122.4 67.29 124.22C62.4338 126.248 59.6619 128.036 55.624 132.092L55.167 132.551L55.7256 132.877C62.8806 137.055 68.0074 138.732 78.5234 140.088C75.1697 142.696 73.2865 144.865 70.5068 149.057L70.0479 149.748L70.873 149.83C77.9043 150.532 81.9471 150.36 88.2129 148.339C87.0261 151.034 86.4835 152.924 85.8447 156.08L85.7012 156.793L86.418 156.673C92.6701 155.62 95.9392 154.596 100.365 152.005C100.458 153.284 100.609 154.368 100.904 155.448C101.261 156.753 101.822 158.028 102.712 159.618L102.989 160.114L103.446 159.776C107.665 156.651 109.92 154.283 113.122 149.729L113.82 154.159C110.163 157.362 107.51 160.139 105.251 163.327C102.951 166.573 101.072 170.227 98.9531 175.152L98.7051 175.728L99.3213 175.841C103.445 176.605 105.917 176.678 110.028 175.963C109.506 179.821 109.705 182.253 110.599 186.409L110.734 187.039L111.312 186.751C114.915 184.95 116.936 183.669 119.852 181.443C119.718 184.227 120.136 186.315 121.202 187.743C122.429 189.386 124.41 190.03 126.973 189.999H126.983L126.993 189.998C129.981 189.844 131.836 189.233 132.797 187.589C133.262 186.793 133.485 185.803 133.576 184.623C133.644 183.741 133.639 182.726 133.595 181.569C136.295 184.027 138.335 185.322 142.204 186.772L142.74 186.973L142.867 186.415C143.832 182.166 144.11 179.582 143.468 175.189C146.477 176.202 149.232 176.273 154.562 175.848L155.341 175.786L154.958 175.104C149.762 165.869 145.995 161.024 137.824 153.306L139.272 149.414C143.356 154.432 145.811 156.682 150.022 159.777L150.55 160.165L150.785 159.554C151.981 156.447 152.415 154.543 152.634 151.512C157.215 153.96 160.812 155.055 167.481 156.665L168.246 156.85L168.089 156.079C167.415 152.776 166.641 150.798 165.017 148.006C167.856 149.013 170.252 149.632 172.708 149.933C175.536 150.279 178.421 150.201 182.127 149.83L182.832 149.76L182.528 149.119C181.48 146.905 180.454 145.257 179.121 143.758C178.011 142.51 176.698 141.379 175.009 140.112C179.168 139.677 182.549 139.151 185.89 138.174C189.573 137.097 193.188 135.483 197.737 132.879L198.304 132.555L197.844 132.092C195.109 129.344 192.855 127.518 190.442 126.189C188.462 125.098 186.391 124.356 183.89 123.704C187.905 122.354 191.167 120.977 194.254 118.885C197.757 116.511 201.008 113.237 204.894 108.099L205.195 107.7L204.796 107.398C203.917 106.735 203.095 106.258 201.971 105.947C201.074 105.7 200 105.563 198.571 105.503C204.857 98.4043 208.125 93.9783 211.954 85.6406L212.17 85.1709L211.693 84.9707C208.937 83.8162 206.749 83.1483 204.544 82.9326C202.671 82.7495 200.809 82.8967 198.6 83.3223C201.377 79.2087 203.323 75.6384 204.679 71.6133C206.145 67.2607 206.914 62.4045 207.329 55.7959L207.356 55.3545L206.922 55.2725Z" fill="#F1933F"/>
<path d="M112.489 105.059C112.489 105.059 119.143 100.109 126.967 98.6689C133.561 100.402 136.678 101.633 140.511 104.603L140.978 110.08L144.714 119.208L140.044 129.706C146.172 125.41 149.575 122.923 154.055 114.644L154.061 114.584C154.933 105.695 155.422 100.718 153.588 92.2788C178.799 68.3816 193.71 53.2915 206.83 55.7643C206.002 68.939 203.771 74.9944 197.489 84.0631C202.962 82.8403 206.03 83.1415 211.5 85.4324C207.558 94.0179 204.225 98.4172 197.489 105.972C201.434 106.033 202.804 106.521 204.495 107.798C196.762 118.024 191.645 120.708 182.077 123.773C188.626 125.28 192.055 126.986 197.489 132.445C188.435 137.627 183.178 138.825 173.67 139.748C178.069 142.916 180.007 144.964 182.077 149.333C174.7 150.071 170.702 149.632 163.863 147.051C165.975 150.496 166.845 152.486 167.599 156.179C160.616 154.494 157.049 153.385 152.187 150.702C151.988 154.156 151.595 156.059 150.319 159.374C145.959 156.17 143.507 153.891 139.11 148.42L137.242 153.441C145.545 161.258 149.301 166.069 154.522 175.35C148.743 175.81 146.084 175.68 142.846 174.437C143.637 179.274 143.392 181.843 142.379 186.304C138.164 184.724 136.178 183.349 133.038 180.37C133.402 187.082 132.904 189.192 126.967 189.499C121.997 189.559 119.812 187.001 120.429 180.37C117.033 183.014 115.01 184.343 111.088 186.304C110.153 181.954 109.99 179.549 110.621 175.35C106.151 176.182 103.701 176.144 99.4121 175.35C103.638 165.528 106.863 160.882 114.357 154.354L113.423 148.42C109.85 153.625 107.62 156.062 103.148 159.374C101.392 156.237 100.985 154.43 100.813 151.159C96.0833 154.022 92.8702 155.079 86.3352 156.179C87.0463 152.666 87.6299 150.756 89.1374 147.507C82.3157 149.84 78.2969 150.069 70.9231 149.333C73.9345 144.792 75.8632 142.671 79.7967 139.748C68.5001 138.369 63.3297 136.738 55.978 132.445C60.2605 128.143 63.0769 126.438 68.5879 124.229C59.1465 120.312 54.9466 116.406 48.5055 107.798L53.1758 105.972C47.6209 97.6679 45.1019 93.181 41.5 85.4324C47.3651 83.2032 50.639 82.8345 56.4451 84.0631C48.5325 72.6646 46.4984 66.4733 47.1044 55.7643C62.8144 55.9975 76.7522 71.1872 99.4121 91.8224C97.3966 103.767 97.3258 109.114 99.4121 114.644C104.115 121.165 107.254 124.485 113.89 129.706L108.753 119.208L112.489 110.08V105.059Z" fill="white"/>
<path d="M126.5 136.096L121.83 122.403L126.5 121.947L131.637 122.403L126.5 136.096Z" fill="#F1933F"/>
<path fill-rule="evenodd" clip-rule="evenodd" d="M128.5 0.5C199.192 0.5 256.5 57.8075 256.5 128.5C256.5 152.228 250.043 174.449 238.791 193.5H18.209C6.95683 174.449 0.5 152.228 0.5 128.5C0.5 57.8075 57.8075 0.5 128.5 0.5ZM206.922 55.2725C200.136 53.9937 192.974 57.2735 184.441 63.7344C175.894 70.2064 165.836 79.9801 153.244 91.916L153.039 92.1094L153.1 92.3848C154.912 100.728 154.436 105.636 153.567 114.492C151.363 118.552 149.432 121.18 147.312 123.316C145.53 125.113 143.604 126.571 141.238 128.251L145.171 119.411L145.258 119.217L141.47 109.963L140.99 104.342L140.817 104.207L140.091 103.659C136.494 101.019 133.301 99.8164 127.094 98.1855L126.986 98.1572L126.877 98.1768C122.895 98.9094 119.224 100.532 116.558 101.963C115.222 102.679 114.134 103.351 113.378 103.844C113 104.09 112.704 104.292 112.503 104.434C112.402 104.504 112.325 104.56 112.272 104.598C112.246 104.617 112.227 104.632 112.213 104.642C112.206 104.647 112.2 104.651 112.196 104.653C112.195 104.655 112.192 104.656 112.192 104.656L112.19 104.658L111.989 104.808V109.98L108.205 119.227L112.458 127.918C107.031 123.499 104.08 120.256 99.8574 114.406C97.8454 109.033 97.8986 103.797 99.9053 91.9053L99.9502 91.6367L99.749 91.4531C88.4405 81.155 79.2598 72.1694 70.958 65.7471C62.6517 59.3212 55.1321 55.3839 47.1123 55.2646L46.6318 55.2568L46.6055 55.7363C46.3002 61.1311 46.6581 65.4229 48.1055 69.8115C49.4633 73.9287 51.7708 78.1033 55.3379 83.3359C52.9577 82.9006 50.9603 82.7611 48.9473 82.9531C46.6056 83.1765 44.2728 83.8434 41.3223 84.9648L40.8203 85.1562L41.0469 85.6436C44.5848 93.2546 47.0866 97.736 52.415 105.731L47.7119 107.571L48.1055 108.097C51.3333 112.411 54.0207 115.577 57.1006 118.156C59.9406 120.535 63.0979 122.4 67.29 124.22C62.4338 126.248 59.6619 128.036 55.624 132.092L55.167 132.551L55.7256 132.877C62.8806 137.055 68.0074 138.732 78.5234 140.088C75.1697 142.696 73.2865 144.865 70.5068 149.057L70.0479 149.748L70.873 149.83C77.9043 150.532 81.9471 150.36 88.2129 148.339C87.0261 151.034 86.4835 152.924 85.8447 156.08L85.7012 156.793L86.418 156.673C92.6701 155.62 95.9392 154.596 100.365 152.005C100.458 153.284 100.609 154.368 100.904 155.448C101.261 156.753 101.822 158.028 102.712 159.618L102.989 160.114L103.446 159.776C107.665 156.651 109.92 154.283 113.122 149.729L113.82 154.159C110.163 157.362 107.51 160.139 105.251 163.327C102.951 166.573 101.072 170.227 98.9531 175.152L98.7051 175.728L99.3213 175.841C103.445 176.605 105.917 176.678 110.028 175.963C109.506 179.821 109.705 182.253 110.599 186.409L110.734 187.039L111.312 186.751C114.915 184.95 116.936 183.669 119.852 181.443C119.718 184.227 120.136 186.315 121.202 187.743C122.429 189.386 124.41 190.03 126.973 189.999H126.983L126.993 189.998C129.981 189.844 131.836 189.233 132.797 187.589C133.262 186.793 133.485 185.803 133.576 184.623C133.644 183.741 133.639 182.726 133.595 181.569C136.295 184.027 138.335 185.322 142.204 186.772L142.74 186.973L142.867 186.415C143.832 182.166 144.11 179.582 143.468 175.189C146.477 176.202 149.232 176.273 154.562 175.848L155.341 175.786L154.958 175.104C149.762 165.869 145.995 161.024 137.824 153.306L139.272 149.414C143.356 154.432 145.811 156.682 150.022 159.777L150.55 160.165L150.785 159.554C151.981 156.447 152.415 154.543 152.634 151.512C157.215 153.96 160.812 155.055 167.481 156.665L168.246 156.85L168.089 156.079C167.415 152.776 166.641 150.798 165.017 148.006C167.856 149.013 170.252 149.632 172.708 149.933C175.536 150.279 178.421 150.201 182.127 149.83L182.832 149.76L182.528 149.119C181.48 146.905 180.454 145.257 179.121 143.758C178.011 142.51 176.698 141.379 175.009 140.112C179.168 139.677 182.549 139.151 185.89 138.174C189.573 137.097 193.188 135.483 197.737 132.879L198.304 132.555L197.844 132.092C195.109 129.344 192.855 127.518 190.442 126.189C188.462 125.098 186.391 124.356 183.89 123.704C187.905 122.354 191.167 120.977 194.254 118.885C197.757 116.511 201.008 113.237 204.894 108.099L205.195 107.7L204.796 107.398C203.917 106.735 203.095 106.258 201.971 105.947C201.074 105.7 200 105.563 198.571 105.503C204.857 98.4043 208.125 93.9783 211.954 85.6406L212.17 85.1709L211.693 84.9707C208.937 83.8162 206.749 83.1483 204.544 82.9326C202.671 82.7495 200.809 82.8967 198.6 83.3223C201.377 79.2087 203.323 75.6384 204.679 71.6133C206.145 67.2607 206.914 62.4045 207.329 55.7959L207.356 55.3545L206.922 55.2725Z" stroke="#F1933F"/>
<path d="M112.489 105.059C112.489 105.059 119.143 100.109 126.967 98.6689C133.561 100.402 136.678 101.633 140.511 104.603L140.978 110.08L144.714 119.208L140.044 129.706C146.172 125.41 149.575 122.923 154.055 114.644L154.061 114.584C154.933 105.695 155.422 100.718 153.588 92.2788C178.799 68.3816 193.71 53.2915 206.83 55.7643C206.002 68.939 203.771 74.9944 197.489 84.0631C202.962 82.8403 206.03 83.1415 211.5 85.4324C207.558 94.0179 204.225 98.4172 197.489 105.972C201.434 106.033 202.804 106.521 204.495 107.798C196.762 118.024 191.645 120.708 182.077 123.773C188.626 125.28 192.055 126.986 197.489 132.445C188.435 137.627 183.178 138.825 173.67 139.748C178.069 142.916 180.007 144.964 182.077 149.333C174.7 150.071 170.702 149.632 163.863 147.051C165.975 150.496 166.845 152.486 167.599 156.179C160.616 154.494 157.049 153.385 152.187 150.702C151.988 154.156 151.595 156.059 150.319 159.374C145.959 156.17 143.507 153.891 139.11 148.42L137.242 153.441C145.545 161.258 149.301 166.069 154.522 175.35C148.743 175.81 146.084 175.68 142.846 174.437C143.637 179.274 143.392 181.843 142.379 186.304C138.164 184.724 136.178 183.349 133.038 180.37C133.402 187.082 132.904 189.192 126.967 189.499C121.997 189.559 119.812 187.001 120.429 180.37C117.033 183.014 115.01 184.343 111.088 186.304C110.153 181.954 109.99 179.549 110.621 175.35C106.151 176.182 103.701 176.144 99.4121 175.35C103.638 165.528 106.863 160.882 114.357 154.354L113.423 148.42C109.85 153.625 107.62 156.062 103.148 159.374C101.392 156.237 100.985 154.43 100.813 151.159C96.0833 154.022 92.8702 155.079 86.3352 156.179C87.0463 152.666 87.6299 150.756 89.1374 147.507C82.3157 149.84 78.2969 150.069 70.9231 149.333C73.9345 144.792 75.8632 142.671 79.7967 139.748C68.5001 138.369 63.3297 136.738 55.978 132.445C60.2605 128.143 63.0769 126.438 68.5879 124.229C59.1465 120.312 54.9466 116.406 48.5055 107.798L53.1758 105.972C47.6209 97.6679 45.1019 93.181 41.5 85.4324C47.3651 83.2032 50.639 82.8345 56.4451 84.0631C48.5325 72.6646 46.4984 66.4733 47.1044 55.7643C62.8144 55.9975 76.7522 71.1872 99.4121 91.8224C97.3966 103.767 97.3258 109.114 99.4121 114.644C104.115 121.165 107.254 124.485 113.89 129.706L108.753 119.208L112.489 110.08V105.059Z" stroke="#F1933F"/>
<path d="M126.5 136.096L121.83 122.403L126.5 121.947L131.637 122.403L126.5 136.096Z" stroke="#F1933F"/>
</svg>
